<?xml version="1.0" encoding="utf-8"?>
<!-- Generator: Adobe Illustrator 22.1.0, SVG Export Plug-In . SVG Version: 6.00 Build 0)  -->
<svg version="1.1" id="Capa_1" xmlns="http://www.w3.org/2000/svg" xmlns:xlink="http://www.w3.org/1999/xlink" x="0px" y="0px"
	 viewBox="0 0 380.7 380.7" style="enable-background:new 0 0 380.7 380.7;" xml:space="preserve">
<g>
	<g>
		<path d="M50,362.2h51.3c0.7,4.5,4.4,8,9.1,8h116.5c4.7,0,8.4-3.5,9.1-8h51.3c8.7,0,15.7-7,15.7-15.7H34.4
			C34.4,355.2,41.4,362.2,50,362.2z"/>
		<path d="M364.7,201c-13.1-10.6-31.5-10.8-43.6-9.4c0.3-8.4,0.5-17.1,0.5-26.1H2.2c0,86.3,13.1,148.6,95.7,171.9h128
			c32.7-9.2,54.5-24.6,68.9-45.2c31.4-0.6,81.8-13,83.7-56.3C379.3,217,371.4,206.4,364.7,201z M307.9,267.5
			c6-15.4,9.6-32.8,11.5-51.9c8.5-1.4,23.1-2.3,30.5,3.7c1.4,1.1,5.6,4.6,5.1,15.7C354,257.4,326.1,264.9,307.9,267.5z"/>
		<path d="M132.3,153.4c0,0,60.8-4.5,32.9-55.7c-22.4-41.2-17.3-65.3,11.4-87.1c0,0-93.8,23.9-39.1,97.8
			C157.6,140.6,132.3,153.4,132.3,153.4z"/>
		<path d="M173.3,149.3c0,0,48.7-10.3,22.2-49.4c-9.6-17,3.6-23.1,3.6-23.1s-31.4,1-18.1,27.9C191.6,126.4,188.5,138.7,173.3,149.3z
			"/>
	</g>
</g>
</svg>
