<?xml version="1.0" encoding="iso-8859-1"?>
<!-- Generator: Adobe Illustrator 19.1.0, SVG Export Plug-In . SVG Version: 6.00 Build 0)  -->
<svg xmlns="http://www.w3.org/2000/svg" xmlns:xlink="http://www.w3.org/1999/xlink" version="1.1" id="Capa_1" x="0px" y="0px" viewBox="0 0 465 465" style="enable-background:new 0 0 465 465;" xml:space="preserve" width="512px" height="512px">
<g>
	<g>
		<path d="M453,235.4c6.6,0,12-5.4,12-12V12c0-6.6-5.4-12-12-12H12C5.4,0,0,5.4,0,12v440.9c0,6.6,5.4,12,12,12h212.6    c6.6,0,12-5.4,12-12s-5.4-12-12-12H24V24h416.9v199.4C441,230.1,446.3,235.4,453,235.4z" fill="#FFFFFF"/>
		<path d="M453,441c-3.2,0-6.3,1.3-8.5,3.5s-3.5,5.3-3.5,8.5s1.3,6.3,3.5,8.5s5.3,3.5,8.5,3.5c3.1,0,6.3-1.3,8.5-3.5    s3.5-5.3,3.5-8.5s-1.3-6.3-3.5-8.5C459.2,442.3,456.1,441,453,441z" fill="#FFFFFF"/>
		<path d="M412.5,441c-6.6,0-12,5.4-12,12s5.4,12,12,12s12-5.4,12-12C424.5,446.3,419.2,441,412.5,441z" fill="#FFFFFF"/>
		<path d="M372.1,441c-6.6,0-12,5.4-12,12s5.4,12,12,12s12-5.4,12-12C384.1,446.3,378.8,441,372.1,441z" fill="#FFFFFF"/>
		<path d="M331.7,441c-6.6,0-12,5.4-12,12s5.4,12,12,12s12-5.4,12-12C343.7,446.3,338.3,441,331.7,441z" fill="#FFFFFF"/>
		<path d="M291.3,441c-3.2,0-6.3,1.3-8.5,3.5s-3.5,5.3-3.5,8.5s1.3,6.3,3.5,8.5s5.3,3.5,8.5,3.5s6.3-1.3,8.5-3.5s3.5-5.3,3.5-8.5    s-1.3-6.3-3.5-8.5C297.5,442.3,294.4,441,291.3,441z" fill="#FFFFFF"/>
		<path d="M291.3,400.5c-6.6,0-12,5.4-12,12s5.4,12,12,12s12-5.4,12-12S297.9,400.5,291.3,400.5z" fill="#FFFFFF"/>
		<path d="M291.3,360.1c-6.6,0-12,5.4-12,12s5.4,12,12,12s12-5.4,12-12S297.9,360.1,291.3,360.1z" fill="#FFFFFF"/>
		<path d="M291.3,319.7c-6.6,0-12,5.4-12,12s5.4,12,12,12s12-5.4,12-12S297.9,319.7,291.3,319.7z" fill="#FFFFFF"/>
		<path d="M291.3,279.3c-3.2,0-6.3,1.3-8.5,3.5s-3.5,5.3-3.5,8.5s1.3,6.3,3.5,8.5s5.3,3.5,8.5,3.5s6.3-1.3,8.5-3.5s3.5-5.3,3.5-8.5    s-1.3-6.3-3.5-8.5C297.5,280.6,294.4,279.3,291.3,279.3z" fill="#FFFFFF"/>
		<circle cx="331.7" cy="291.3" r="12" fill="#FFFFFF"/>
		<path d="M412.5,279.3c-6.6,0-12,5.4-12,12s5.4,12,12,12s12-5.4,12-12S419.2,279.3,412.5,279.3z" fill="#FFFFFF"/>
		<path d="M372.1,279.3c-6.6,0-12,5.4-12,12s5.4,12,12,12s12-5.4,12-12S378.8,279.3,372.1,279.3z" fill="#FFFFFF"/>
		<path d="M461.4,282.8c-2.2-2.2-5.3-3.5-8.5-3.5s-6.3,1.3-8.5,3.5s-3.5,5.3-3.5,8.5s1.3,6.3,3.5,8.5s5.3,3.5,8.5,3.5    c3.1,0,6.3-1.3,8.5-3.5s3.5-5.3,3.5-8.5S463.7,285,461.4,282.8z" fill="#FFFFFF"/>
		<path d="M453,400.5c-6.6,0-12,5.4-12,12s5.4,12,12,12s12-5.4,12-12S459.6,400.5,453,400.5z" fill="#FFFFFF"/>
		<path d="M453,319.7c-6.6,0-12,5.4-12,12s5.4,12,12,12s12-5.4,12-12S459.6,319.7,453,319.7z" fill="#FFFFFF"/>
		<path d="M453,360.1c-6.6,0-12,5.4-12,12s5.4,12,12,12s12-5.4,12-12S459.6,360.1,453,360.1z" fill="#FFFFFF"/>
		<path d="M122.4,105.5h74.9c6.6,0,12-5.4,12-12s-5.4-12-12-12H93.5c-6.6,0-12,5.4-12,12v103.9c0,6.6,5.4,12,12,12s12-5.4,12-12    v-74.9l130.9,130.9c2.3,2.3,5.4,3.5,8.5,3.5s6.1-1.2,8.5-3.5c4.7-4.7,4.7-12.3,0-17L122.4,105.5z" fill="#FFFFFF"/>
	</g>
</g>
<g>
</g>
<g>
</g>
<g>
</g>
<g>
</g>
<g>
</g>
<g>
</g>
<g>
</g>
<g>
</g>
<g>
</g>
<g>
</g>
<g>
</g>
<g>
</g>
<g>
</g>
<g>
</g>
<g>
</g>
</svg>
